<?xml version="1.0" standalone="no"?>
<!DOCTYPE svg PUBLIC "-//W3C//DTD SVG 20010904//EN"
 "http://www.w3.org/TR/2001/REC-SVG-20010904/DTD/svg10.dtd">
<svg version="1.0" xmlns="http://www.w3.org/2000/svg"
 width="512.000000pt" height="512.000000pt" viewBox="0 0 512.000000 512.000000"
 preserveAspectRatio="xMidYMid meet">
<metadata>
Created by potrace 1.14, written by Peter Selinger 2001-2017
</metadata>
<g transform="translate(0.000000,512.000000) scale(0.100000,-0.100000)"
fill="#000000" stroke="none">
<path d="M1999 3666 c-2 -2 -26 -7 -54 -11 -72 -9 -220 -60 -293 -101 -171
-96 -324 -245 -462 -449 -28 -41 -50 -76 -50 -79 0 -9 3101 0 3135 8 123 29
162 43 250 86 196 96 357 248 523 492 18 26 32 49 32 52 0 7 -3074 8 -3081 2z"/>
<path d="M92 2880 c15 -4 47 -11 70 -14 24 -3 111 -17 193 -31 143 -23 563
-91 615 -100 14 -2 68 -11 120 -19 52 -9 113 -18 135 -21 22 -4 49 -8 60 -10
45 -7 95 -15 185 -30 52 -8 106 -17 120 -20 13 -3 42 -7 65 -10 22 -3 51 -8
65 -10 14 -3 40 -7 58 -10 71 -11 99 -16 151 -25 30 -6 56 -10 58 -10 5 0
-385 -580 -405 -602 -14 -17 -13 -18 11 -18 26 0 620 89 622 93 1 1 22 31 47
67 93 135 518 770 518 775 0 3 -611 5 -1357 4 -747 0 -1346 -4 -1331 -9z"/>
<path d="M2855 2866 c49 -49 32 -82 -251 -500 -107 -159 -193 -290 -191 -292
2 -3 44 2 93 10 49 9 109 18 134 21 25 3 70 10 100 15 75 13 107 18 160 25 69
9 103 15 130 21 20 4 76 81 260 356 129 192 237 354 238 359 2 5 -143 9 -347
9 l-350 0 24 -24z"/>
<path d="M3601 2872 c27 -23 28 -75 3 -124 -9 -18 -95 -149 -190 -291 l-174
-259 53 6 c53 7 59 7 162 25 33 6 76 13 95 15 235 29 335 84 467 253 38 48
263 380 263 388 0 3 -158 5 -351 5 -343 0 -351 0 -328 -18z"/>
<path d="M800 2444 c-459 -685 -626 -932 -642 -953 -33 -43 -35 -42 102 -21
41 6 89 13 105 15 17 3 41 7 55 10 14 2 48 7 75 10 28 4 57 8 65 10 8 2 35 7
60 10 25 3 70 10 100 15 30 6 75 12 100 15 25 3 56 7 70 10 27 5 40 7 165 25
109 16 118 18 124 28 3 4 76 111 160 237 85 127 212 316 283 420 120 179 126
190 105 197 -12 4 -116 23 -232 43 -115 20 -221 38 -235 40 -14 3 -41 8 -60
11 -19 2 -57 9 -85 14 -73 13 -115 20 -161 27 l-41 5 -113 -168z"/>
</g>
</svg>
